# xmcd
#
# Track frame offsets: 
#        150
#        19830
#        35740
#        56568
#        76422
#        101668
#        118526
#        148989
#        170612
#
# Disc length: 2635 seconds
#
# Revision: 0
# Processed by: cddbd v1.5.2PL0 Copyright (c) Steve Scherf et al.
# Submitted via: ExactAudioCopy v1.3
#
DISCID=7c0a4909
DTITLE=Isaiah B Brunt - Just the Way That It Goes
DYEAR=2015
DGENRE=Electric Blues
TTITLE0=She's So Fine
TTITLE1=Let Your Heart Know
TTITLE2=The River Runs High
TTITLE3=Precious Stone
TTITLE4=With A Kiss (Piano Blues)
TTITLE5=Lovers Blues
TTITLE6=Just The Way That It Goes
TTITLE7=Never Give Up
TTITLE8=Which Way To Go
EXTD=
EXTT0=
EXTT1=
EXTT2=
EXTT3=
EXTT4=
EXTT5=
EXTT6=
EXTT7=
EXTT8=
PLAYORDER=
